<mxfile host="app.diagrams.net" agent="Mozilla/5.0 (Windows NT 10.0; Win64; x64) AppleWebKit/537.36 (KHTML, like Gecko) Chrome/134.0.0.0 Safari/537.36" version="26.1.1">
  <diagram name="Seite-1" id="LLf-mWwUX8Gk-yWhwi8n">
    <mxGraphModel dx="2261" dy="1941" grid="1" gridSize="10" guides="1" tooltips="1" connect="1" arrows="1" fold="1" page="1" pageScale="1" pageWidth="827" pageHeight="1169" math="0" shadow="0">
      <root>
        <mxCell id="0" />
        <mxCell id="1" parent="0" />
        <mxCell id="Z2w9bITWuegX84-pbN_F-4" value="" style="ellipse;whiteSpace=wrap;html=1;aspect=fixed;strokeWidth=6;fillColor=none;strokeColor=#E1E1E1;backgroundOutline=0;" parent="1" vertex="1">
          <mxGeometry width="100" height="100" as="geometry" />
        </mxCell>
        <mxCell id="Z2w9bITWuegX84-pbN_F-5" value="" style="triangle;whiteSpace=wrap;html=1;strokeWidth=6;strokeColor=#E1E1E1;fillColor=#E1E1E1;" parent="1" vertex="1">
          <mxGeometry x="53" y="24" width="39" height="52" as="geometry" />
        </mxCell>
      </root>
    </mxGraphModel>
  </diagram>
</mxfile>
